<svg width="30" height="30" viewBox="0 0 30 30" fill="none" xmlns="http://www.w3.org/2000/svg">
<path d="M14.8934 1.10222L24.6513 5.17253L28.6932 14.9992L24.6513 24.8258L14.8934 28.8961L5.13551 24.8258L1.09367 14.9992L5.13551 5.17253L14.8934 1.10222ZM14.8934 0L4.36203 4.39275L0 14.9983L4.36203 25.6039L14.8934 29.9966L25.4248 25.6039L29.7868 14.9983L25.4248 4.39275L14.8934 0Z" fill="white"/>
<path d="M15 2.17156L27.8284 15L15 27.8284L2.17156 15L15 2.17156ZM15 0L0 15L15 30L30 15L15 0Z" fill="white"/>
<path d="M14.9547 22.4628C13.8848 17.0524 12.9476 16.1164 7.53719 15.0453C7.4876 15.0353 7.4876 14.9647 7.53719 14.9547C12.9476 13.8848 13.8836 12.9476 14.9547 7.53719C14.9647 7.4876 15.0353 7.4876 15.0452 7.53719C16.1152 12.9476 17.0524 13.8836 22.4628 14.9547C22.5124 14.9647 22.5124 15.0353 22.4628 15.0453C17.0524 16.1152 16.1164 17.0524 15.0452 22.4628C15.0353 22.5124 14.9647 22.5124 14.9547 22.4628Z" fill="white"/>
</svg>
