<svg width="144" height="69" viewBox="0 0 144 69" fill="none" xmlns="http://www.w3.org/2000/svg">
<path d="M86.91 53.9696C87.2807 53.3516 87.4661 52.8229 87.4661 52.3835C87.4661 52.0539 87.3631 51.8067 87.1572 51.6419C86.9649 51.4634 86.6834 51.3741 86.3126 51.3741C86.2714 51.3741 86.2508 51.3329 86.2508 51.2505C86.2508 51.1682 86.2714 51.127 86.3126 51.127L87.4043 51.1476C88.036 51.175 88.5991 51.1887 89.0934 51.1887C89.3269 51.1887 89.6084 51.175 89.938 51.1476L90.7001 51.127C90.7276 51.127 90.7413 51.1682 90.7413 51.2505C90.7413 51.3329 90.7276 51.3741 90.7001 51.3741C90.2744 51.3741 89.7526 51.6419 89.1346 52.1775C88.5167 52.6993 87.9674 53.3585 87.4867 54.1549L84.8089 58.6248L84.3763 58.2747L86.91 53.9696ZM80.0506 53.4958C79.5425 52.6993 79.1168 52.15 78.7735 51.8479C78.4439 51.5321 78.1624 51.3741 77.929 51.3741C77.8878 51.3741 77.8672 51.3329 77.8672 51.2505C77.8672 51.1682 77.8878 51.127 77.929 51.127L78.5675 51.1476C78.8696 51.175 79.0825 51.1887 79.2061 51.1887C79.6867 51.1887 80.3802 51.175 81.2866 51.1476L82.6461 51.127C82.6735 51.127 82.6873 51.1682 82.6873 51.2505C82.6873 51.3329 82.6735 51.3741 82.6461 51.3741C82.4126 51.3741 82.2272 51.4291 82.0899 51.5389C81.9663 51.6488 81.9045 51.793 81.9045 51.9715C81.9045 52.1912 82.0006 52.4521 82.1929 52.7542L85.1591 57.4301L83.1816 58.3571L80.0506 53.4958ZM85.3445 57.4301V62.3326C85.3445 62.7583 85.3788 63.0673 85.4475 63.2595C85.5161 63.4518 85.6466 63.5822 85.8388 63.6509C86.0448 63.7196 86.3675 63.7539 86.807 63.7539C86.8482 63.7539 86.8688 63.7951 86.8688 63.8775C86.8688 63.9599 86.8482 64.0011 86.807 64.0011C86.3538 64.0011 85.9968 63.9942 85.7358 63.9805L84.191 63.9599L82.6667 63.9805C82.392 63.9942 82.0212 64.0011 81.5543 64.0011C81.5269 64.0011 81.5131 63.9599 81.5131 63.8775C81.5131 63.7951 81.5269 63.7539 81.5543 63.7539C81.9938 63.7539 82.3165 63.7196 82.5225 63.6509C82.7285 63.5822 82.8658 63.4518 82.9344 63.2595C83.0168 63.0535 83.058 62.7446 83.058 62.3326V57.6155L85.3445 57.4301Z" fill="white"/>
<path d="M75.5408 64.0004C75.2249 64.0004 74.6413 63.4305 73.7899 62.2907C72.9385 61.1372 71.9085 59.5373 70.7001 57.4912L72.5952 56.9145C73.7349 58.6447 74.6825 59.9974 75.4378 60.9724C76.2068 61.9474 76.8865 62.6546 77.477 63.094C78.0675 63.5335 78.6443 63.7532 79.2073 63.7532C79.2348 63.7532 79.2485 63.7944 79.2485 63.8768C79.2485 63.9592 79.2348 64.0004 79.2073 64.0004H75.5408ZM71.1121 51.0645C72.3617 51.0645 73.3298 51.2979 74.0165 51.7648C74.7031 52.218 75.0464 52.8565 75.0464 53.6805C75.0464 54.4632 74.8198 55.1704 74.3666 55.8021C73.9272 56.4338 73.3504 56.9282 72.6364 57.2852C71.9223 57.6285 71.1739 57.8002 70.3911 57.8002C69.8555 57.8002 69.4779 57.7933 69.2582 57.7796V62.3319C69.2582 62.7576 69.2925 63.0666 69.3612 63.2588C69.4298 63.4511 69.5603 63.5815 69.7525 63.6502C69.9585 63.7189 70.2813 63.7532 70.7207 63.7532C70.7482 63.7532 70.7619 63.7944 70.7619 63.8768C70.7619 63.9592 70.7482 64.0004 70.7207 64.0004C70.2675 64.0004 69.9105 63.9935 69.6496 63.9798L68.0841 63.9592L66.5804 63.9798C66.3057 63.9935 65.9349 64.0004 65.468 64.0004C65.4268 64.0004 65.4062 63.9592 65.4062 63.8768C65.4062 63.7944 65.4268 63.7532 65.468 63.7532C65.9075 63.7532 66.2233 63.7189 66.4156 63.6502C66.6216 63.5815 66.7589 63.4511 66.8276 63.2588C66.9099 63.0528 66.9511 62.7439 66.9511 62.3319V52.7947C66.9511 52.3828 66.9168 52.0807 66.8482 51.8884C66.7795 51.6961 66.6422 51.5657 66.4362 51.497C66.2302 51.4146 65.9143 51.3734 65.4886 51.3734C65.4612 51.3734 65.4474 51.3322 65.4474 51.2498C65.4474 51.1674 65.4612 51.1262 65.4886 51.1262L66.5804 51.1468C67.2121 51.1743 67.7133 51.188 68.0841 51.188C68.551 51.188 69.0385 51.1674 69.5466 51.1262C69.7251 51.1125 69.9448 51.0988 70.2057 51.085C70.4804 51.0713 70.7825 51.0645 71.1121 51.0645ZM72.6982 54.4632C72.6982 53.3372 72.5334 52.5613 72.2038 52.1356C71.8742 51.7099 71.4004 51.497 70.7825 51.497C70.2332 51.497 69.8418 51.6 69.6084 51.806C69.3749 52.012 69.2582 52.3553 69.2582 52.8359V57.2028C69.5878 57.2578 69.986 57.2852 70.4529 57.2852C71.2494 57.2852 71.8193 57.0655 72.1626 56.6261C72.5196 56.1729 72.6982 55.452 72.6982 54.4632Z" fill="white"/>
<path d="M54.1087 64.0011C54.0675 64.0011 54.0469 63.9599 54.0469 63.8775C54.0469 63.7951 54.0675 63.7539 54.1087 63.7539C54.5481 63.7539 54.864 63.7196 55.0562 63.6509C55.2622 63.5822 55.3995 63.4518 55.4682 63.2595C55.5368 63.0535 55.5712 62.7446 55.5712 62.3326V52.7954C55.5712 52.3835 55.5368 52.0814 55.4682 51.8891C55.3995 51.6968 55.2622 51.5664 55.0562 51.4977C54.8502 51.4153 54.5344 51.3741 54.1087 51.3741C54.0675 51.3741 54.0469 51.3329 54.0469 51.2505C54.0469 51.1682 54.0675 51.127 54.1087 51.127H62.8425C62.9798 51.127 63.0485 51.1887 63.0485 51.3123L63.0897 54.052C63.0897 54.0794 63.0485 54.1 62.9661 54.1138C62.8974 54.1275 62.8562 54.1137 62.8425 54.0726C62.6228 53.2761 62.252 52.6856 61.7302 52.3011C61.2083 51.9166 60.5217 51.7243 59.6703 51.7243H59.0523C58.6404 51.7243 58.3382 51.8136 58.146 51.9921C57.9537 52.1706 57.8576 52.4453 57.8576 52.816V62.2502C57.8576 62.6484 57.9331 62.9437 58.0842 63.1359C58.2353 63.3282 58.4756 63.4243 58.8052 63.4243H59.4849C60.556 63.4243 61.4143 63.2046 62.0597 62.7652C62.7052 62.3257 63.1789 61.646 63.481 60.7259C63.481 60.6984 63.5085 60.6847 63.5634 60.6847C63.6046 60.6847 63.639 60.6984 63.6664 60.7259C63.7076 60.7396 63.7282 60.7534 63.7282 60.7671C63.5909 61.8382 63.5222 62.8132 63.5222 63.6921C63.5222 63.802 63.5016 63.8844 63.4604 63.9393C63.4192 63.9805 63.3368 64.0011 63.2132 64.0011H54.1087ZM62.0597 59.4076C62.0597 58.8446 61.84 58.4051 61.4006 58.0893C60.9749 57.7597 60.3569 57.5949 59.5467 57.5949H56.7659V57.0182H59.5673C60.3638 57.0182 60.9749 56.8808 61.4006 56.6062C61.8263 56.3315 62.0391 55.947 62.0391 55.4527C62.0391 55.4115 62.0735 55.3909 62.1421 55.3909C62.2245 55.3909 62.2657 55.4115 62.2657 55.4527L62.2451 57.3065L62.2657 58.2953C62.2932 58.7622 62.3069 59.1329 62.3069 59.4076C62.3069 59.4351 62.2657 59.4488 62.1833 59.4488C62.1009 59.4488 62.0597 59.4351 62.0597 59.4076Z" fill="white"/>
<path d="M46.4279 62.2502C46.4279 62.6072 46.4554 62.8682 46.5103 63.0329C46.5653 63.184 46.6682 63.287 46.8193 63.3419C46.9841 63.3968 47.245 63.4243 47.6021 63.4243H48.3024C49.3735 63.4243 50.3005 63.1428 51.0832 62.5798C51.866 62.003 52.3878 61.2271 52.6487 60.2521C52.6487 60.2247 52.6762 60.2109 52.7311 60.2109C52.7586 60.2109 52.786 60.2247 52.8135 60.2521C52.8547 60.2659 52.8753 60.2796 52.8753 60.2933C52.7517 61.6528 52.6899 62.7858 52.6899 63.6921C52.6899 63.802 52.6624 63.8844 52.6075 63.9393C52.5663 63.9805 52.4908 64.0011 52.3809 64.0011H42.6584C42.6309 64.0011 42.6172 63.9599 42.6172 63.8775C42.6172 63.7951 42.6309 63.7539 42.6584 63.7539C43.0978 63.7539 43.4137 63.7196 43.6059 63.6509C43.8119 63.5822 43.9492 63.4518 44.0179 63.2595C44.1003 63.0535 44.1415 62.7446 44.1415 62.3326V52.7954C44.1415 52.3835 44.1003 52.0814 44.0179 51.8891C43.9492 51.6968 43.8119 51.5664 43.6059 51.4977C43.3999 51.4153 43.0841 51.3741 42.6584 51.3741C42.6309 51.3741 42.6172 51.3329 42.6172 51.2505C42.6172 51.1682 42.6309 51.127 42.6584 51.127L43.7089 51.1476C44.3406 51.175 44.8624 51.1887 45.2744 51.1887C45.6864 51.1887 46.2082 51.175 46.8399 51.1476L47.8904 51.127C47.9316 51.127 47.9522 51.1682 47.9522 51.2505C47.9522 51.3329 47.9316 51.3741 47.8904 51.3741C47.4647 51.3741 47.1489 51.4153 46.9429 51.4977C46.7369 51.5664 46.5996 51.7037 46.5309 51.9097C46.4623 52.102 46.4279 52.4041 46.4279 52.816V62.2502Z" fill="white"/>
<path d="M35.2014 62.2502C35.2014 62.6072 35.2288 62.8682 35.2838 63.0329C35.3387 63.184 35.4417 63.287 35.5927 63.3419C35.7575 63.3968 36.0184 63.4243 36.3755 63.4243H37.0758C38.147 63.4243 39.0739 63.1428 39.8566 62.5798C40.6394 62.003 41.1612 61.2271 41.4221 60.2521C41.4221 60.2247 41.4496 60.2109 41.5045 60.2109C41.532 60.2109 41.5595 60.2247 41.5869 60.2521C41.6281 60.2659 41.6487 60.2796 41.6487 60.2933C41.5251 61.6528 41.4633 62.7858 41.4633 63.6921C41.4633 63.802 41.4359 63.8844 41.3809 63.9393C41.3397 63.9805 41.2642 64.0011 41.1544 64.0011H31.4318C31.4044 64.0011 31.3906 63.9599 31.3906 63.8775C31.3906 63.7951 31.4044 63.7539 31.4318 63.7539C31.8713 63.7539 32.1871 63.7196 32.3794 63.6509C32.5853 63.5822 32.7227 63.4518 32.7913 63.2595C32.8737 63.0535 32.9149 62.7446 32.9149 62.3326V52.7954C32.9149 52.3835 32.8737 52.0814 32.7913 51.8891C32.7227 51.6968 32.5853 51.5664 32.3794 51.4977C32.1734 51.4153 31.8575 51.3741 31.4318 51.3741C31.4044 51.3741 31.3906 51.3329 31.3906 51.2505C31.3906 51.1682 31.4044 51.127 31.4318 51.127L32.4823 51.1476C33.114 51.175 33.6359 51.1887 34.0478 51.1887C34.4598 51.1887 34.9816 51.175 35.6133 51.1476L36.6639 51.127C36.7051 51.127 36.7257 51.1682 36.7257 51.2505C36.7257 51.3329 36.7051 51.3741 36.6639 51.3741C36.2382 51.3741 35.9223 51.4153 35.7163 51.4977C35.5103 51.5664 35.373 51.7037 35.3044 51.9097C35.2357 52.102 35.2014 52.4041 35.2014 52.816V62.2502Z" fill="white"/>
<path d="M19.9024 58.7069H25.8348L25.979 59.2837H19.5934L19.9024 58.7069ZM30.8402 63.7535C30.9089 63.7535 30.9432 63.7947 30.9432 63.8771C30.9432 63.9595 30.9089 64.0007 30.8402 64.0007C30.5656 64.0007 30.1399 63.987 29.5631 63.9595C28.9589 63.9321 28.5263 63.9183 28.2654 63.9183C27.9221 63.9183 27.5033 63.9321 27.0089 63.9595C26.542 63.987 26.1712 64.0007 25.8966 64.0007C25.8416 64.0007 25.8142 63.9595 25.8142 63.8771C25.8142 63.7947 25.8416 63.7535 25.8966 63.7535C26.2536 63.7535 26.5077 63.7192 26.6587 63.6506C26.8235 63.5682 26.9059 63.4308 26.9059 63.2386C26.9059 63.0051 26.7686 62.6138 26.4939 62.0645L22.3124 53.8044L23.3217 52.0329L19.2226 61.0757C19.0441 61.474 18.9548 61.8447 18.9548 62.1881C18.9548 62.6824 19.1265 63.0669 19.4698 63.3416C19.8268 63.6162 20.3006 63.7535 20.8911 63.7535C20.9598 63.7535 20.9941 63.7947 20.9941 63.8771C20.9941 63.9595 20.9598 64.0007 20.8911 64.0007C20.6439 64.0007 20.2869 63.987 19.82 63.9595C19.2982 63.9321 18.845 63.9183 18.4605 63.9183C18.0897 63.9183 17.6434 63.9321 17.1216 63.9595C16.6547 63.987 16.277 64.0007 15.9886 64.0007C15.9337 64.0007 15.9062 63.9595 15.9062 63.8771C15.9062 63.7947 15.9337 63.7535 15.9886 63.7535C16.3732 63.7535 16.6959 63.678 16.9568 63.527C17.2177 63.3622 17.4786 63.0807 17.7395 62.6824C18.0004 62.2705 18.3094 61.6662 18.6665 60.8697L23.1364 51.0442C23.1638 51.003 23.2256 50.9824 23.3217 50.9824C23.4316 50.9824 23.4934 51.003 23.5071 51.0442L28.6568 61.1787C29.1374 62.1537 29.5357 62.8266 29.8515 63.1974C30.1673 63.5682 30.4969 63.7535 30.8402 63.7535Z" fill="white"/>
<path d="M9.67049 64.2483C8.105 64.2483 6.74549 63.9599 5.59197 63.3831C4.43845 62.7926 3.55271 61.9962 2.93475 60.9937C2.31679 59.9912 2.00781 58.8789 2.00781 57.6567C2.00781 56.3522 2.35112 55.1849 3.03774 54.155C3.73809 53.125 4.69936 52.3286 5.92155 51.7655C7.14373 51.1888 8.51697 50.9004 10.0413 50.9004C10.7004 50.9004 11.3596 50.9553 12.0187 51.0652C12.6779 51.1613 13.2066 51.2918 13.6048 51.4566C13.7559 51.5115 13.8383 51.5595 13.852 51.6007C13.8795 51.6282 13.9001 51.7381 13.9138 51.9303L14.1816 54.7935C14.1816 54.8347 14.1404 54.8622 14.058 54.8759C13.9893 54.8897 13.9481 54.8691 13.9344 54.8141C13.7559 54.361 13.4675 53.8666 13.0693 53.331C12.671 52.7955 12.1492 52.3286 11.5038 51.9303C10.8583 51.5321 10.1099 51.333 9.25852 51.333C8.37964 51.333 7.5763 51.5733 6.84848 52.0539C6.12067 52.5345 5.5439 53.2212 5.1182 54.1138C4.70623 55.0064 4.50024 56.0432 4.50024 57.2242C4.50024 58.515 4.74056 59.6685 5.22119 60.6847C5.71556 61.7009 6.39531 62.4905 7.26045 63.0536C8.1256 63.6166 9.1006 63.8981 10.1855 63.8981C10.7485 63.8981 11.1811 63.8363 11.4832 63.7127C11.7853 63.5891 12.005 63.3488 12.1423 62.9918C12.2796 62.6347 12.3483 62.106 12.3483 61.4057C12.3483 60.6916 12.3071 60.1972 12.2247 59.9226C12.1423 59.6342 11.9638 59.4419 11.6892 59.3458C11.4282 59.2497 10.9613 59.2016 10.2884 59.2016C10.2061 59.2016 10.1649 59.1467 10.1649 59.0368C10.1649 58.9956 10.1717 58.9613 10.1855 58.9338C10.2129 58.8926 10.2404 58.872 10.2678 58.872C11.4351 58.9407 12.3826 58.975 13.1105 58.975C13.8108 58.975 14.5386 58.9544 15.2939 58.9132C15.3488 58.9132 15.3763 58.9613 15.3763 59.0574C15.39 59.1536 15.3626 59.2016 15.2939 59.2016C15.0467 59.1879 14.8682 59.236 14.7583 59.3458C14.6622 59.4419 14.6004 59.6479 14.573 59.9638C14.5455 60.2796 14.5318 60.8289 14.5318 61.6117C14.5318 62.2296 14.5524 62.6691 14.5936 62.93C14.6485 63.1909 14.6759 63.3557 14.6759 63.4243C14.6759 63.5067 14.6622 63.5617 14.6348 63.5891C14.6073 63.6166 14.5455 63.6441 14.4494 63.6715C12.6779 64.056 11.0849 64.2483 9.67049 64.2483Z" fill="white"/>
<path d="M122.176 28.6007L122.774 28.6419L122.547 38.3851C122.533 39.1266 122.678 39.7102 122.98 40.1359C123.296 40.5479 123.735 40.7539 124.298 40.7539C124.339 40.7539 124.36 40.7951 124.36 40.8775C124.36 40.9599 124.339 41.0011 124.298 41.0011C123.927 41.0011 123.639 40.9942 123.433 40.9805L122.3 40.9599L121.002 40.9805C120.783 40.9942 120.487 41.0011 120.116 41.0011C120.075 41.0011 120.055 40.9599 120.055 40.8775C120.055 40.7951 120.075 40.7539 120.116 40.7539C120.68 40.7539 121.126 40.541 121.455 40.1153C121.785 39.6896 121.957 39.1129 121.97 38.3851L122.176 28.6007ZM136.719 40.7539C136.746 40.7539 136.76 40.7951 136.76 40.8775C136.76 40.9599 136.746 41.0011 136.719 41.0011C136.252 41.0011 135.881 40.9942 135.607 40.9805L134.082 40.9599L132.537 40.9805C132.277 40.9942 131.919 41.0011 131.466 41.0011C131.425 41.0011 131.405 40.9599 131.405 40.8775C131.405 40.7951 131.425 40.7539 131.466 40.7539C131.906 40.7539 132.228 40.7196 132.434 40.6509C132.654 40.5685 132.798 40.4312 132.867 40.2389C132.936 40.0467 132.956 39.7446 132.929 39.3326L132.455 30.1868L133.506 28.5389L128.253 40.8569C128.225 40.9118 128.171 40.9393 128.088 40.9393C128.006 40.9393 127.951 40.9118 127.923 40.8569L122.135 29.8366C121.86 29.3285 121.572 28.9578 121.27 28.7243C120.982 28.4909 120.645 28.3741 120.261 28.3741C120.219 28.3741 120.199 28.3329 120.199 28.2505C120.199 28.1682 120.219 28.127 120.261 28.127L121.229 28.1476C121.421 28.1613 121.668 28.1681 121.97 28.1681L123.062 28.1476C123.186 28.1338 123.344 28.127 123.536 28.127C123.714 28.127 123.852 28.1887 123.948 28.3123C124.044 28.4359 124.222 28.7312 124.483 29.1981L129.097 37.8495L128.068 39.7034L132.888 28.6419C132.97 28.4497 133.052 28.3192 133.135 28.2505C133.231 28.1682 133.355 28.127 133.506 28.127C133.629 28.127 133.766 28.1338 133.918 28.1476C134.082 28.1613 134.268 28.1681 134.474 28.1681L135.689 28.1476C135.881 28.1338 136.156 28.127 136.513 28.127C136.554 28.127 136.575 28.1682 136.575 28.2505C136.575 28.3329 136.554 28.3741 136.513 28.3741C135.868 28.3741 135.401 28.5046 135.112 28.7655C134.824 29.0264 134.693 29.4315 134.721 29.9808L135.215 39.3326C135.243 39.7583 135.291 40.0673 135.359 40.2595C135.442 40.4518 135.579 40.5822 135.771 40.6509C135.977 40.7196 136.293 40.7539 136.719 40.7539Z" fill="white"/>
<path d="M116.844 30.7636C116.844 30.022 116.672 29.4384 116.329 29.0127C116 28.587 115.533 28.3741 114.928 28.3741C114.901 28.3741 114.887 28.3329 114.887 28.2505C114.887 28.1682 114.901 28.127 114.928 28.127L115.917 28.1476C116.439 28.175 116.858 28.1887 117.174 28.1887C117.435 28.1887 117.812 28.175 118.307 28.1476L119.254 28.127C119.282 28.127 119.295 28.1682 119.295 28.2505C119.295 28.3329 119.282 28.3741 119.254 28.3741C118.719 28.3741 118.3 28.587 117.998 29.0127C117.696 29.4384 117.544 30.022 117.544 30.7636V36.49C117.544 37.4513 117.332 38.2958 116.906 39.0236C116.48 39.7514 115.876 40.3145 115.093 40.7127C114.324 41.0972 113.432 41.2895 112.415 41.2895C111.399 41.2895 110.5 41.0972 109.717 40.7127C108.934 40.3282 108.316 39.772 107.863 39.0442C107.424 38.3027 107.204 37.4375 107.204 36.4488V29.7954C107.204 29.3835 107.163 29.0814 107.08 28.8891C107.012 28.6968 106.874 28.5664 106.668 28.4977C106.476 28.4153 106.167 28.3741 105.741 28.3741C105.7 28.3741 105.68 28.3329 105.68 28.2505C105.68 28.1682 105.7 28.127 105.741 28.127L106.833 28.1476C107.465 28.175 107.966 28.1887 108.337 28.1887C108.749 28.1887 109.271 28.175 109.902 28.1476L110.953 28.127C110.994 28.127 111.015 28.1682 111.015 28.2505C111.015 28.3329 110.994 28.3741 110.953 28.3741C110.527 28.3741 110.211 28.4153 110.005 28.4977C109.813 28.5801 109.676 28.7243 109.593 28.9303C109.525 29.1226 109.49 29.4247 109.49 29.8366V35.7278C109.49 37.362 109.813 38.5704 110.459 39.3532C111.104 40.1359 112.017 40.5273 113.198 40.5273C114.338 40.5273 115.231 40.184 115.876 39.4974C116.521 38.797 116.844 37.8014 116.844 36.5106V30.7636Z" fill="white"/>
<path d="M96.413 28.6004C94.7789 28.6004 93.6047 29.6647 92.8906 31.7932C92.8769 31.8344 92.8357 31.855 92.7671 31.855C92.6984 31.8413 92.6641 31.8138 92.6641 31.7726C92.719 31.2233 92.7808 30.5161 92.8494 29.651C92.9181 28.7721 92.9524 28.1129 92.9524 27.6735C92.9524 27.6048 92.9868 27.5705 93.0554 27.5705C93.1378 27.5705 93.179 27.6048 93.179 27.6735C93.179 27.9756 93.5704 28.1267 94.3531 28.1267C95.5341 28.1679 96.9142 28.1885 98.4935 28.1885C99.3037 28.1885 100.162 28.1747 101.068 28.1473L102.469 28.1267C102.991 28.1267 103.368 28.0923 103.602 28.0237C103.849 27.955 104.007 27.8177 104.076 27.6117C104.089 27.5568 104.131 27.5293 104.199 27.5293C104.282 27.5293 104.323 27.5568 104.323 27.6117C104.282 28.0237 104.234 28.6828 104.179 29.5892C104.137 30.4955 104.117 31.2233 104.117 31.7726C104.117 31.8138 104.083 31.8344 104.014 31.8344C103.945 31.8344 103.904 31.8138 103.89 31.7726C103.684 30.7152 103.3 29.9256 102.737 29.4038C102.174 28.8682 101.48 28.6004 100.656 28.6004C100.258 28.6004 99.9903 28.6897 99.853 28.8682C99.7294 29.033 99.6676 29.3557 99.6676 29.8363V39.3323C99.6676 39.758 99.7088 40.067 99.7912 40.2592C99.8736 40.4515 100.031 40.5819 100.265 40.6506C100.498 40.7193 100.869 40.7536 101.377 40.7536C101.418 40.7536 101.439 40.7948 101.439 40.8772C101.439 40.9596 101.418 41.0008 101.377 41.0008C100.883 41.0008 100.492 40.9939 100.203 40.9802L98.4935 40.9596L96.825 40.9802C96.5366 40.9939 96.1384 41.0008 95.6303 41.0008C95.5891 41.0008 95.5685 40.9596 95.5685 40.8772C95.5685 40.7948 95.5891 40.7536 95.6303 40.7536C96.1246 40.7536 96.4885 40.7193 96.722 40.6506C96.9692 40.5819 97.134 40.4515 97.2164 40.2592C97.3125 40.0532 97.3605 39.7443 97.3605 39.3323V29.7951C97.3605 29.3282 97.2987 29.0124 97.1752 28.8476C97.0516 28.6828 96.7975 28.6004 96.413 28.6004Z" fill="white"/>
<path d="M86.6222 27.9004C87.2676 27.9004 87.9199 27.9553 88.5791 28.0652C89.252 28.1613 89.7875 28.2918 90.1858 28.4566C90.3094 28.4977 90.3849 28.5527 90.4123 28.6213C90.4535 28.6763 90.481 28.7793 90.4947 28.9303L90.7625 31.7935C90.7625 31.8347 90.7282 31.8622 90.6595 31.8759C90.5909 31.8897 90.5428 31.8691 90.5153 31.8141C90.1308 30.6881 89.5815 29.8298 88.8675 29.2393C88.1534 28.6351 87.2951 28.333 86.2926 28.333C85.3588 28.333 84.5212 28.587 83.7796 29.0951C83.0518 29.5895 82.475 30.3036 82.0493 31.2374C81.6373 32.1712 81.4314 33.2629 81.4314 34.5125C81.4314 35.7759 81.6442 36.8882 82.0699 37.8495C82.5094 38.797 83.1067 39.5317 83.862 40.0536C84.631 40.5617 85.5099 40.8157 86.4986 40.8157C87.4462 40.8157 88.2426 40.5617 88.8881 40.0536C89.5335 39.5317 90.1446 38.6803 90.7213 37.4993C90.7351 37.4581 90.7763 37.4444 90.8449 37.4581C90.9136 37.4719 90.9479 37.4993 90.9479 37.5405L90.6389 40.0948C90.6115 40.2595 90.584 40.3694 90.5565 40.4243C90.5291 40.4655 90.4535 40.5136 90.33 40.5685C89.0666 41.0217 87.7895 41.2483 86.4986 41.2483C85.0293 41.2483 83.7109 40.9736 82.5437 40.4243C81.3902 39.8613 80.4838 39.0786 79.8247 38.0761C79.1655 37.0736 78.8359 35.9338 78.8359 34.6567C78.8359 33.3522 79.1724 32.1918 79.8453 31.1756C80.5319 30.1456 81.4657 29.3423 82.6467 28.7655C83.8414 28.1888 85.1666 27.9004 86.6222 27.9004Z" fill="white"/>
<path d="M67.1524 35.7069H73.0848L73.229 36.2837H66.8434L67.1524 35.7069ZM78.0902 40.7535C78.1589 40.7535 78.1932 40.7947 78.1932 40.8771C78.1932 40.9595 78.1589 41.0007 78.0902 41.0007C77.8156 41.0007 77.3899 40.987 76.8131 40.9595C76.2089 40.9321 75.7763 40.9183 75.5154 40.9183C75.1721 40.9183 74.7533 40.9321 74.2589 40.9595C73.792 40.987 73.4212 41.0007 73.1466 41.0007C73.0916 41.0007 73.0642 40.9595 73.0642 40.8771C73.0642 40.7947 73.0916 40.7535 73.1466 40.7535C73.5036 40.7535 73.7577 40.7192 73.9087 40.6506C74.0735 40.5682 74.1559 40.4308 74.1559 40.2386C74.1559 40.0051 74.0186 39.6138 73.7439 39.0645L69.5624 30.8044L70.5717 29.0329L66.4726 38.0757C66.2941 38.474 66.2048 38.8447 66.2048 39.1881C66.2048 39.6824 66.3765 40.0669 66.7198 40.3416C67.0768 40.6162 67.5506 40.7535 68.1411 40.7535C68.2098 40.7535 68.2441 40.7947 68.2441 40.8771C68.2441 40.9595 68.2098 41.0007 68.1411 41.0007C67.8939 41.0007 67.5369 40.987 67.07 40.9595C66.5482 40.9321 66.095 40.9183 65.7105 40.9183C65.3397 40.9183 64.8934 40.9321 64.3716 40.9595C63.9047 40.987 63.527 41.0007 63.2386 41.0007C63.1837 41.0007 63.1562 40.9595 63.1562 40.8771C63.1562 40.7947 63.1837 40.7535 63.2386 40.7535C63.6232 40.7535 63.9459 40.678 64.2068 40.527C64.4677 40.3622 64.7286 40.0807 64.9895 39.6824C65.2504 39.2705 65.5594 38.6662 65.9165 37.8697L70.3864 28.0442C70.4138 28.003 70.4756 27.9824 70.5717 27.9824C70.6816 27.9824 70.7434 28.003 70.7571 28.0442L75.9068 38.1787C76.3874 39.1537 76.7857 39.8266 77.1015 40.1974C77.4173 40.5682 77.7469 40.7535 78.0902 40.7535Z" fill="white"/>
<path d="M53.7415 41.0011C53.7003 41.0011 53.6797 40.9599 53.6797 40.8775C53.6797 40.7951 53.7003 40.7539 53.7415 40.7539C54.2221 40.7539 54.5723 40.7196 54.792 40.6509C55.0117 40.5822 55.1559 40.4518 55.2246 40.2595C55.307 40.0535 55.3482 39.7446 55.3482 39.3326V29.7954C55.3482 29.3835 55.3138 29.0814 55.2452 28.8891C55.1765 28.6968 55.0392 28.5664 54.8332 28.4977C54.6272 28.4153 54.3114 28.3741 53.8857 28.3741C53.8445 28.3741 53.8239 28.3329 53.8239 28.2505C53.8239 28.1682 53.8445 28.127 53.8857 28.127H62.6195C62.7568 28.127 62.8255 28.1887 62.8255 28.3123L62.8667 31.052C62.8667 31.0794 62.8255 31.1 62.7431 31.1138C62.6744 31.1275 62.6332 31.1137 62.6195 31.0726C62.3998 30.2761 62.029 29.6856 61.5072 29.3011C60.9853 28.9166 60.2987 28.7243 59.4473 28.7243H58.8293C58.4174 28.7243 58.1153 28.8136 57.923 28.9921C57.7307 29.1706 57.6346 29.4453 57.6346 29.816V39.2502C57.6346 39.6759 57.6895 39.9917 57.7994 40.1977C57.9093 40.4037 58.1152 40.5479 58.4174 40.6303C58.7195 40.7127 59.1932 40.7539 59.8387 40.7539C59.8661 40.7539 59.8799 40.7951 59.8799 40.8775C59.8799 40.9599 59.8661 41.0011 59.8387 41.0011C59.2756 41.0011 58.8362 40.9942 58.5204 40.9805L56.4193 40.9599L54.8744 40.9805C54.5998 40.9942 54.2221 41.0011 53.7415 41.0011ZM61.5895 36.6342C61.5895 36.0849 61.3698 35.6523 60.9304 35.3365C60.5047 35.0069 59.8936 34.8421 59.0971 34.8421H56.5429V34.2653H59.1177C59.9142 34.2653 60.5184 34.128 60.9304 33.8534C61.3561 33.565 61.569 33.1736 61.569 32.6792C61.569 32.6518 61.6101 32.638 61.6925 32.638C61.7749 32.638 61.8161 32.6518 61.8161 32.6792L61.7955 34.5537C61.7955 34.9932 61.8024 35.3227 61.8161 35.5424L61.8367 36.6342C61.8367 36.6754 61.7955 36.696 61.7131 36.696C61.6307 36.696 61.5895 36.6754 61.5895 36.6342Z" fill="white"/>
<path d="M42.5227 41.0011C42.4815 41.0011 42.4609 40.9599 42.4609 40.8775C42.4609 40.7951 42.4815 40.7539 42.5227 40.7539C42.9622 40.7539 43.278 40.7196 43.4703 40.6509C43.6763 40.5822 43.8136 40.4518 43.8822 40.2595C43.9509 40.0535 43.9852 39.7446 43.9852 39.3326V29.7954C43.9852 29.3835 43.9509 29.0814 43.8822 28.8891C43.8136 28.6968 43.6763 28.5664 43.4703 28.4977C43.2643 28.4153 42.9484 28.3741 42.5227 28.3741C42.4815 28.3741 42.4609 28.3329 42.4609 28.2505C42.4609 28.1682 42.4815 28.127 42.5227 28.127H51.2565C51.3939 28.127 51.4625 28.1887 51.4625 28.3123L51.5037 31.052C51.5037 31.0794 51.4625 31.1 51.3801 31.1138C51.3115 31.1275 51.2703 31.1137 51.2565 31.0726C51.0368 30.2761 50.666 29.6856 50.1442 29.3011C49.6224 28.9166 48.9358 28.7243 48.0844 28.7243H47.4664C47.0544 28.7243 46.7523 28.8136 46.5601 28.9921C46.3678 29.1706 46.2717 29.4453 46.2717 29.816V39.2502C46.2717 39.6484 46.3472 39.9437 46.4983 40.1359C46.6493 40.3282 46.8896 40.4243 47.2192 40.4243H47.899C48.9701 40.4243 49.8284 40.2046 50.4738 39.7652C51.1192 39.3257 51.593 38.646 51.8951 37.7259C51.8951 37.6984 51.9226 37.6847 51.9775 37.6847C52.0187 37.6847 52.053 37.6984 52.0805 37.7259C52.1217 37.7396 52.1423 37.7534 52.1423 37.7671C52.005 38.8382 51.9363 39.8132 51.9363 40.6921C51.9363 40.802 51.9157 40.8844 51.8745 40.9393C51.8333 40.9805 51.7509 41.0011 51.6273 41.0011H42.5227ZM50.4738 36.4076C50.4738 35.8446 50.2541 35.4051 49.8146 35.0893C49.3889 34.7597 48.771 34.5949 47.9608 34.5949H45.18V34.0182H47.9814C48.7778 34.0182 49.3889 33.8808 49.8146 33.6062C50.2403 33.3315 50.4532 32.947 50.4532 32.4527C50.4532 32.4115 50.4875 32.3909 50.5562 32.3909C50.6386 32.3909 50.6798 32.4115 50.6798 32.4527L50.6592 34.3065L50.6798 35.2953C50.7072 35.7622 50.721 36.1329 50.721 36.4076C50.721 36.4351 50.6798 36.4488 50.5974 36.4488C50.515 36.4488 50.4738 36.4351 50.4738 36.4076Z" fill="white"/>
<path d="M33.0146 28.6004C31.3804 28.6004 30.2063 29.6647 29.4922 31.7932C29.4785 31.8344 29.4373 31.855 29.3686 31.855C29.3 31.8413 29.2656 31.8138 29.2656 31.7726C29.3206 31.2233 29.3823 30.5161 29.451 29.651C29.5197 28.7721 29.554 28.1129 29.554 27.6735C29.554 27.6048 29.5883 27.5705 29.657 27.5705C29.7394 27.5705 29.7806 27.6048 29.7806 27.6735C29.7806 27.9756 30.172 28.1267 30.9547 28.1267C32.1357 28.1679 33.5158 28.1885 35.095 28.1885C35.9052 28.1885 36.7635 28.1747 37.6699 28.1473L39.0706 28.1267C39.5924 28.1267 39.97 28.0923 40.2035 28.0237C40.4507 27.955 40.6086 27.8177 40.6772 27.6117C40.691 27.5568 40.7322 27.5293 40.8008 27.5293C40.8832 27.5293 40.9244 27.5568 40.9244 27.6117C40.8832 28.0237 40.8352 28.6828 40.7802 29.5892C40.739 30.4955 40.7184 31.2233 40.7184 31.7726C40.7184 31.8138 40.6841 31.8344 40.6154 31.8344C40.5468 31.8344 40.5056 31.8138 40.4919 31.7726C40.2859 30.7152 39.9014 29.9256 39.3383 29.4038C38.7753 28.8682 38.0818 28.6004 37.2579 28.6004C36.8596 28.6004 36.5919 28.6897 36.4545 28.8682C36.3309 29.033 36.2691 29.3557 36.2691 29.8363V39.3323C36.2691 39.758 36.3103 40.067 36.3927 40.2592C36.4751 40.4515 36.6331 40.5819 36.8665 40.6506C37.1 40.7193 37.4707 40.7536 37.9788 40.7536C38.02 40.7536 38.0406 40.7948 38.0406 40.8772C38.0406 40.9596 38.02 41.0008 37.9788 41.0008C37.4845 41.0008 37.0931 40.9939 36.8047 40.9802L35.095 40.9596L33.4265 40.9802C33.1382 40.9939 32.7399 41.0008 32.2318 41.0008C32.1906 41.0008 32.17 40.9596 32.17 40.8772C32.17 40.7948 32.1906 40.7536 32.2318 40.7536C32.7262 40.7536 33.0901 40.7193 33.3235 40.6506C33.5707 40.5819 33.7355 40.4515 33.8179 40.2592C33.914 40.0532 33.9621 39.7443 33.9621 39.3323V29.7951C33.9621 29.3282 33.9003 29.0124 33.7767 28.8476C33.6531 28.6828 33.3991 28.6004 33.0146 28.6004Z" fill="white"/>
<path d="M26.6658 41.0004C26.3499 41.0004 25.7663 40.4305 24.9149 39.2907C24.0635 38.1372 23.0335 36.5373 21.8251 34.4912L23.7202 33.9145C24.8599 35.6447 25.8075 36.9974 26.5628 37.9724C27.3318 38.9474 28.0115 39.6546 28.602 40.094C29.1925 40.5335 29.7693 40.7532 30.3323 40.7532C30.3598 40.7532 30.3735 40.7944 30.3735 40.8768C30.3735 40.9592 30.3598 41.0004 30.3323 41.0004H26.6658ZM22.2371 28.0645C23.4867 28.0645 24.4548 28.2979 25.1415 28.7648C25.8281 29.218 26.1714 29.8565 26.1714 30.6805C26.1714 31.4632 25.9448 32.1704 25.4916 32.8021C25.0522 33.4338 24.4754 33.9282 23.7614 34.2852C23.0473 34.6285 22.2989 34.8002 21.5161 34.8002C20.9805 34.8002 20.6029 34.7933 20.3832 34.7796V39.3319C20.3832 39.7576 20.4175 40.0666 20.4862 40.2588C20.5548 40.4511 20.6853 40.5815 20.8776 40.6502C21.0835 40.7189 21.4062 40.7532 21.8457 40.7532C21.8732 40.7532 21.8869 40.7944 21.8869 40.8768C21.8869 40.9592 21.8732 41.0004 21.8457 41.0004C21.3925 41.0004 21.0355 40.9935 20.7746 40.9798L19.2091 40.9592L17.7054 40.9798C17.4307 40.9935 17.0599 41.0004 16.593 41.0004C16.5518 41.0004 16.5312 40.9592 16.5312 40.8768C16.5312 40.7944 16.5518 40.7532 16.593 40.7532C17.0325 40.7532 17.3483 40.7189 17.5406 40.6502C17.7466 40.5815 17.8839 40.4511 17.9526 40.2588C18.0349 40.0528 18.0761 39.7439 18.0761 39.3319V29.7947C18.0761 29.3828 18.0418 29.0807 17.9732 28.8884C17.9045 28.6961 17.7672 28.5657 17.5612 28.497C17.3552 28.4146 17.0393 28.3734 16.6136 28.3734C16.5862 28.3734 16.5724 28.3322 16.5724 28.2498C16.5724 28.1674 16.5862 28.1262 16.6136 28.1262L17.7054 28.1468C18.3371 28.1743 18.8383 28.188 19.2091 28.188C19.676 28.188 20.1635 28.1674 20.6716 28.1262C20.8501 28.1125 21.0698 28.0988 21.3307 28.0851C21.6054 28.0713 21.9075 28.0645 22.2371 28.0645ZM23.8232 31.4632C23.8232 30.3372 23.6584 29.5613 23.3288 29.1356C22.9992 28.7099 22.5254 28.497 21.9075 28.497C21.3582 28.497 20.9668 28.6 20.7334 28.806C20.4999 29.012 20.3832 29.3553 20.3832 29.8359V34.2028C20.7128 34.2578 21.111 34.2852 21.5779 34.2852C22.3744 34.2852 22.9443 34.0655 23.2876 33.6261C23.6446 33.1729 23.8232 32.452 23.8232 31.4632Z" fill="white"/>
<path d="M4.83206 35.7069H10.7645L10.9087 36.2837H4.52309L4.83206 35.7069ZM15.7699 40.7535C15.8386 40.7535 15.8729 40.7947 15.8729 40.8771C15.8729 40.9595 15.8386 41.0007 15.7699 41.0007C15.4953 41.0007 15.0696 40.987 14.4928 40.9595C13.8886 40.9321 13.456 40.9183 13.1951 40.9183C12.8518 40.9183 12.4329 40.9321 11.9386 40.9595C11.4717 40.987 11.1009 41.0007 10.8263 41.0007C10.7713 41.0007 10.7439 40.9595 10.7439 40.8771C10.7439 40.7947 10.7713 40.7535 10.8263 40.7535C11.1833 40.7535 11.4373 40.7192 11.5884 40.6506C11.7532 40.5682 11.8356 40.4308 11.8356 40.2386C11.8356 40.0051 11.6983 39.6138 11.4236 39.0645L7.2421 30.8044L8.25143 29.0329L4.15231 38.0757C3.97379 38.474 3.88453 38.8447 3.88453 39.1881C3.88453 39.6824 4.05618 40.0669 4.39949 40.3416C4.75654 40.6162 5.2303 40.7535 5.8208 40.7535C5.88946 40.7535 5.92379 40.7947 5.92379 40.8771C5.92379 40.9595 5.88946 41.0007 5.8208 41.0007C5.57361 41.0007 5.21657 40.987 4.74967 40.9595C4.22784 40.9321 3.77467 40.9183 3.39016 40.9183C3.01939 40.9183 2.57309 40.9321 2.05125 40.9595C1.58435 40.987 1.20671 41.0007 0.918332 41.0007C0.863402 41.0007 0.835938 40.9595 0.835938 40.8771C0.835938 40.7947 0.863402 40.7535 0.918332 40.7535C1.30284 40.7535 1.62555 40.678 1.88647 40.527C2.14738 40.3622 2.4083 40.0807 2.66921 39.6824C2.93013 39.2705 3.23911 38.6662 3.59615 37.8697L8.06604 28.0442C8.09351 28.003 8.15531 27.9824 8.25143 27.9824C8.36129 27.9824 8.42309 28.003 8.43682 28.0442L13.5865 38.1787C14.0671 39.1537 14.4653 39.8266 14.7812 40.1974C15.097 40.5682 15.4266 40.7535 15.7699 40.7535Z" fill="white"/>
<path d="M30.8118 18.0011C30.7706 18.0011 30.75 17.9599 30.75 17.8775C30.75 17.7951 30.7706 17.7539 30.8118 17.7539C31.2512 17.7539 31.5671 17.7196 31.7593 17.6509C31.9653 17.5822 32.1026 17.4518 32.1713 17.2595C32.24 17.0535 32.2743 16.7446 32.2743 16.3326V6.79544C32.2743 6.38347 32.24 6.08135 32.1713 5.8891C32.1026 5.69685 31.9653 5.56639 31.7593 5.49773C31.5533 5.41533 31.2375 5.37414 30.8118 5.37414C30.7706 5.37414 30.75 5.33294 30.75 5.25054C30.75 5.16815 30.7706 5.12695 30.8118 5.12695H39.5456C39.6829 5.12695 39.7516 5.18875 39.7516 5.31234L39.7928 8.05195C39.7928 8.07942 39.7516 8.10002 39.6692 8.11375C39.6005 8.12748 39.5593 8.11375 39.5456 8.07255C39.3259 7.27607 38.9551 6.68558 38.4333 6.30107C37.9114 5.91657 37.2248 5.72431 36.3734 5.72431H35.7555C35.3435 5.72431 35.0414 5.81357 34.8491 5.99209C34.6569 6.17061 34.5607 6.44526 34.5607 6.81604V16.2502C34.5607 16.6484 34.6363 16.9437 34.7873 17.1359C34.9384 17.3282 35.1787 17.4243 35.5083 17.4243H36.188C37.2592 17.4243 38.1174 17.2046 38.7629 16.7652C39.4083 16.3257 39.882 15.646 40.1842 14.7259C40.1842 14.6984 40.2116 14.6847 40.2666 14.6847C40.3077 14.6847 40.3421 14.6984 40.3695 14.7259C40.4107 14.7396 40.4313 14.7534 40.4313 14.7671C40.294 15.8382 40.2254 16.8132 40.2254 17.6921C40.2254 17.802 40.2048 17.8843 40.1636 17.9393C40.1224 17.9805 40.04 18.0011 39.9164 18.0011H30.8118ZM38.7629 13.4076C38.7629 12.8446 38.5431 12.4051 38.1037 12.0893C37.678 11.7597 37.06 11.5949 36.2498 11.5949H33.469V11.0182H36.2704C37.0669 11.0182 37.678 10.8808 38.1037 10.6062C38.5294 10.3315 38.7423 9.94702 38.7423 9.45266C38.7423 9.41146 38.7766 9.39086 38.8452 9.39086C38.9276 9.39086 38.9688 9.41146 38.9688 9.45266L38.9482 11.3065L38.9688 12.2953C38.9963 12.7622 39.01 13.1329 39.01 13.4076C39.01 13.4351 38.9688 13.4488 38.8864 13.4488C38.8041 13.4488 38.7629 13.4351 38.7629 13.4076Z" fill="white"/>
<path d="M25.4208 6.83664C25.4208 6.42466 25.3796 6.12255 25.2972 5.9303C25.2148 5.72431 25.0569 5.58012 24.8234 5.49773C24.59 5.41533 24.2192 5.37414 23.7111 5.37414C23.6699 5.37414 23.6493 5.33294 23.6493 5.25054C23.6493 5.16815 23.6699 5.12695 23.7111 5.12695L24.7204 5.14755C25.407 5.17502 26.025 5.18875 26.5743 5.18875C26.9451 5.18875 27.4738 5.17502 28.1604 5.14755L29.3139 5.12695C29.3551 5.12695 29.3757 5.16815 29.3757 5.25054C29.3757 5.33294 29.3551 5.37414 29.3139 5.37414C28.847 5.37414 28.4968 5.41533 28.2634 5.49773C28.0437 5.56639 27.8926 5.69685 27.8102 5.8891C27.7416 6.08135 27.7072 6.38347 27.7072 6.79544V16.3326C27.7072 16.7446 27.7416 17.0535 27.8102 17.2595C27.8926 17.4518 28.0437 17.5822 28.2634 17.6509C28.4831 17.7196 28.8333 17.7539 29.3139 17.7539C29.3551 17.7539 29.3757 17.7951 29.3757 17.8775C29.3757 17.9599 29.3551 18.0011 29.3139 18.0011C28.8333 18.0011 28.4488 17.9942 28.1604 17.9805L26.5743 17.9599L24.7204 17.9805C24.4732 17.9942 24.1368 18.0011 23.7111 18.0011C23.6699 18.0011 23.6493 17.9599 23.6493 17.8775C23.6493 17.7951 23.6699 17.7539 23.7111 17.7539C24.2192 17.7539 24.59 17.7196 24.8234 17.6509C25.0569 17.5822 25.2148 17.4518 25.2972 17.2595C25.3796 17.0673 25.4208 16.7583 25.4208 16.3326V6.83664ZM17.5521 11.0182H26.4713V11.5949H17.5521V11.0182ZM16.481 6.79544C16.481 6.38347 16.4398 6.08135 16.3574 5.8891C16.275 5.69685 16.1239 5.56639 15.9042 5.49773C15.6982 5.41533 15.3618 5.37414 14.8949 5.37414C14.8537 5.37414 14.8331 5.33294 14.8331 5.25054C14.8331 5.16815 14.8537 5.12695 14.8949 5.12695L16.0072 5.14755C16.6389 5.17502 17.147 5.18875 17.5315 5.18875C18.0533 5.18875 18.6576 5.17502 19.3442 5.14755L20.4771 5.12695C20.5046 5.12695 20.5183 5.16815 20.5183 5.25054C20.5183 5.33294 20.5046 5.37414 20.4771 5.37414C19.9827 5.37414 19.6188 5.41533 19.3854 5.49773C19.1519 5.58012 18.9871 5.72431 18.891 5.9303C18.8086 6.12255 18.7674 6.42466 18.7674 6.83664V16.3326C18.7674 16.7446 18.8086 17.0535 18.891 17.2595C18.9734 17.4518 19.1313 17.5822 19.3648 17.6509C19.5982 17.7196 19.969 17.7539 20.4771 17.7539C20.5046 17.7539 20.5183 17.7951 20.5183 17.8775C20.5183 17.9599 20.5046 18.0011 20.4771 18.0011C19.9965 18.0011 19.612 17.9942 19.3236 17.9805L17.5315 17.9599L15.9866 17.9805C15.712 17.9942 15.3343 18.0011 14.8537 18.0011C14.8262 18.0011 14.8125 17.9599 14.8125 17.8775C14.8125 17.7951 14.8262 17.7539 14.8537 17.7539C15.3343 17.7539 15.6845 17.7196 15.9042 17.6509C16.1239 17.5822 16.275 17.4518 16.3574 17.2595C16.4398 17.0535 16.481 16.7446 16.481 16.3326V6.79544Z" fill="white"/>
<path d="M5.57707 5.60042C3.94291 5.60042 2.76879 6.66468 2.05471 8.79321C2.04098 8.8344 1.99978 8.855 1.93112 8.855C1.86246 8.84127 1.82812 8.81381 1.82812 8.77261C1.88305 8.22331 1.94485 7.51609 2.01351 6.65095C2.08217 5.77208 2.11651 5.11292 2.11651 4.67349C2.11651 4.60483 2.15084 4.57049 2.2195 4.57049C2.30189 4.57049 2.34309 4.60483 2.34309 4.67349C2.34309 4.9756 2.73446 5.12666 3.51721 5.12666C4.6982 5.16785 6.0783 5.18845 7.65753 5.18845C8.46774 5.18845 9.32601 5.17472 10.2324 5.14726L11.6331 5.12666C12.1549 5.12666 12.5325 5.09233 12.766 5.02366C13.0132 4.955 13.1711 4.81768 13.2397 4.61169C13.2535 4.55676 13.2947 4.5293 13.3633 4.5293C13.4457 4.5293 13.4869 4.55676 13.4869 4.61169C13.4457 5.02366 13.3977 5.68282 13.3427 6.58916C13.3015 7.49549 13.2809 8.22331 13.2809 8.77261C13.2809 8.81381 13.2466 8.8344 13.178 8.8344C13.1093 8.8344 13.0681 8.81381 13.0544 8.77261C12.8484 7.71521 12.4639 6.9256 11.9008 6.40377C11.3378 5.86821 10.6443 5.60042 9.82038 5.60042C9.42214 5.60042 9.15436 5.68968 9.01703 5.86821C8.89344 6.03299 8.83165 6.35571 8.83165 6.83634V16.3323C8.83165 16.758 8.87285 17.067 8.95524 17.2592C9.03763 17.4515 9.19556 17.5819 9.42901 17.6506C9.66246 17.7193 10.0332 17.7536 10.5413 17.7536C10.5825 17.7536 10.6031 17.7948 10.6031 17.8772C10.6031 17.9596 10.5825 18.0008 10.5413 18.0008C10.047 18.0008 9.65559 17.9939 9.36721 17.9802L7.65753 17.9596L5.98904 17.9802C5.70066 17.9939 5.30242 18.0008 4.79432 18.0008C4.75313 18.0008 4.73253 17.9596 4.73253 17.8772C4.73253 17.7948 4.75313 17.7536 4.79432 17.7536C5.28869 17.7536 5.6526 17.7193 5.88605 17.6506C6.13323 17.5819 6.29802 17.4515 6.38041 17.2592C6.47654 17.0532 6.5246 16.7443 6.5246 16.3323V6.79514C6.5246 6.32824 6.46281 6.0124 6.33922 5.84761C6.21563 5.68282 5.96158 5.60042 5.57707 5.60042Z" fill="white"/>
<path d="M96.7242 50.1571L98.5296 50.9101L99.2774 52.7282L98.5296 54.5462L96.7242 55.2993L94.9189 54.5462L94.1711 52.7282L94.9189 50.9101L96.7242 50.1571ZM96.7242 49.9531L94.7758 50.7658L93.9688 52.728L94.7758 54.6902L96.7242 55.5029L98.6727 54.6902L99.4797 52.728L98.6727 50.7658L96.7242 49.9531Z" fill="white"/>
<path d="M96.744 50.3549L99.1174 52.7283L96.744 55.1018L94.3705 52.7283L96.744 50.3549ZM96.744 49.9531L93.9688 52.7283L96.744 55.5035L99.5192 52.7283L96.744 49.9531Z" fill="white"/>
<path d="M96.7357 54.1091C96.5377 53.1082 96.3643 52.935 95.3633 52.7368C95.3542 52.735 95.3542 52.7219 95.3633 52.72C96.3643 52.5221 96.5375 52.3487 96.7357 51.3477C96.7375 51.3385 96.7506 51.3385 96.7524 51.3477C96.9504 52.3487 97.1238 52.5219 98.1248 52.72C98.1339 52.7219 98.1339 52.735 98.1248 52.7368C97.1238 52.9347 96.9506 53.1082 96.7524 54.1091C96.7506 54.1183 96.7375 54.1183 96.7357 54.1091Z" fill="white"/>
</svg>
