<svg width="14" height="14" fill="none" xmlns="http://www.w3.org/2000/svg"><path d="M6.95.514l4.554 1.9L13.39 7l-1.886 4.585-4.554 1.9-4.553-1.9L.51 7l1.887-4.586L6.95.514zm0-.514L2.036 2.05 0 7l2.036 4.948 4.914 2.05 4.915-2.05L13.9 7l-2.035-4.95L6.95 0z" fill="#977E4B"/><path d="M7 1.013L12.987 7 7 12.987 1.013 7 7 1.013zM7 0L0 7l7 7 7-7-7-7z" fill="#977E4B"/><path d="M6.979 10.483c-.5-2.525-.937-2.962-3.462-3.462a.021.021 0 010-.042c2.525-.5 2.962-.937 3.462-3.462a.021.021 0 01.042 0c.5 2.525.937 2.962 3.462 3.462a.021.021 0 010 .042c-2.525.5-2.962.937-3.462 3.462a.021.021 0 01-.042 0z" fill="#977E4B"/></svg>