<svg width="14" height="14" viewBox="0 0 14 14" fill="none" xmlns="http://www.w3.org/2000/svg">
<path d="M6.95026 0.514368L11.5039 2.41385L13.3901 6.9996L11.5039 11.5854L6.95026 13.4848L2.39657 11.5854L0.510378 6.9996L2.39657 2.41385L6.95026 0.514368ZM6.95026 0L2.03561 2.04995L0 6.99921L2.03561 11.9485L6.95026 13.9984L11.8649 11.9485L13.9005 6.99921L11.8649 2.04995L6.95026 0Z" fill="#977E4B"/>
<path d="M7 1.01339L12.9866 7L7 12.9866L1.01339 7L7 1.01339ZM7 0L0 7L7 14L14 7L7 0Z" fill="#977E4B"/>
<path d="M6.97888 10.4826C6.47959 7.95781 6.04219 7.52099 3.51736 7.02112C3.49421 7.01649 3.49421 6.98351 3.51736 6.97888C6.04219 6.47959 6.47901 6.04219 6.97888 3.51736C6.98351 3.49421 7.01649 3.49421 7.02112 3.51736C7.52041 6.04219 7.95781 6.47901 10.4826 6.97888C10.5058 6.98351 10.5058 7.01649 10.4826 7.02112C7.95781 7.52041 7.52099 7.95781 7.02112 10.4826C7.01649 10.5058 6.98351 10.5058 6.97888 10.4826Z" fill="#977E4B"/>
</svg>